<svg width="23" height="20" viewBox="0 0 23 20" fill="none" xmlns="http://www.w3.org/2000/svg">
<path fill-rule="evenodd" clip-rule="evenodd" d="M4.79663 3.64547H21.8097C22.3912 3.64547 22.8175 4.19266 22.6767 4.75581L20.861 12.0184C20.7662 12.3973 20.4363 12.6708 20.0465 12.6937L5.76527 13.533C6.02059 14.1297 6.61212 14.5392 7.29093 14.5392H17.2708C18.7646 14.5392 19.98 15.7546 19.98 17.2484C19.98 18.7423 18.7646 19.9577 17.2708 19.9577C15.3988 19.9577 14.0828 18.0905 14.7233 16.3264H9.83237C10.4736 18.0927 9.15476 19.9577 7.28488 19.9577C5.03199 19.9577 3.76654 17.3502 5.15152 15.5816C4.38335 14.973 3.93744 14.0775 3.8645 13.2522C2.73347 0.650913 2.78216 1.19342 2.88795 2.37227L2.88827 2.37576L2.88831 2.37623C2.95951 3.16953 3.05594 4.24397 2.83671 1.80164H1.83808C1.34454 1.80164 0.944458 1.40155 0.944458 0.908021C0.944458 0.414489 1.34454 0.0144043 1.83808 0.0144043H3.65369C4.11625 0.0144043 4.50237 0.367426 4.54373 0.828149L4.79663 3.64547ZM6.36293 17.2484C6.36293 17.7568 6.77654 18.1704 7.28488 18.1704C7.79327 18.1704 8.20688 17.7568 8.20688 17.2484C8.20688 16.7401 7.79327 16.3264 7.28488 16.3264C6.77654 16.3264 6.36293 16.7401 6.36293 17.2484ZM17.2707 18.1704C16.7623 18.1704 16.3487 17.7568 16.3487 17.2484C16.3487 16.7401 16.7623 16.3264 17.2707 16.3264C17.7791 16.3264 18.1927 16.7401 18.1927 17.2484C18.1927 17.7568 17.7791 18.1704 17.2707 18.1704ZM5.52471 11.7568L19.2863 10.9481L20.6652 5.43266H4.95705L5.52471 11.7568Z" fill="white"/>
</svg>
