<svg width="22" height="22" viewBox="0 0 22 22" fill="none" xmlns="http://www.w3.org/2000/svg">
<path fill-rule="evenodd" clip-rule="evenodd" d="M21 11C21 5.47311 16.5275 1 11 1C5.47311 1 1 5.4725 1 11C1 16.4779 5.43512 21 11 21C16.542 21 21 16.5031 21 11ZM11 2.17188C15.8679 2.17188 19.8281 6.13214 19.8281 11C19.8281 12.7807 19.2985 14.4923 18.3163 15.942C14.3722 11.6995 7.63498 11.6918 3.68372 15.942C2.70151 14.4923 2.17188 12.7807 2.17188 11C2.17188 6.13214 6.13214 2.17188 11 2.17188ZM4.41461 16.8789C7.92139 12.9455 14.0795 12.9464 17.5852 16.8789C14.0667 20.8154 7.93466 20.8166 4.41461 16.8789Z" fill="white"/>
<path d="M18.3163 15.942L18.1332 16.1122L18.3471 16.3423L18.5233 16.0822L18.3163 15.942ZM3.68372 15.942L3.47674 16.0822L3.65293 16.3423L3.86681 16.1122L3.68372 15.942ZM4.41461 16.8789L4.228 16.7125L4.07948 16.8791L4.22823 17.0455L4.41461 16.8789ZM17.5852 16.8789L17.7716 17.0455L17.9203 16.8791L17.7718 16.7125L17.5852 16.8789ZM11 1.25C16.3894 1.25 20.75 5.61118 20.75 11H21.25C21.25 5.33505 16.6656 0.75 11 0.75V1.25ZM1.25 11C1.25 5.61058 5.61118 1.25 11 1.25V0.75C5.33505 0.75 0.75 5.33442 0.75 11H1.25ZM11 20.75C5.5746 20.75 1.25 16.3413 1.25 11H0.75C0.75 16.6146 5.29563 21.25 11 21.25V20.75ZM20.75 11C20.75 16.3656 16.4033 20.75 11 20.75V21.25C16.6807 21.25 21.25 16.6405 21.25 11H20.75ZM20.0781 11C20.0781 5.99407 16.0059 1.92188 11 1.92188V2.42188C15.7298 2.42188 19.5781 6.27021 19.5781 11H20.0781ZM18.5233 16.0822C19.5335 14.5911 20.0781 12.8307 20.0781 11H19.5781C19.5781 12.7307 19.0635 14.3935 18.1093 15.8018L18.5233 16.0822ZM3.86681 16.1122C7.71907 11.9686 14.2879 11.9759 18.1332 16.1122L18.4994 15.7718C14.4565 11.423 7.55089 11.4151 3.50062 15.7718L3.86681 16.1122ZM1.92188 11C1.92188 12.8307 2.46649 14.5911 3.47674 16.0822L3.89069 15.8018C2.93653 14.3935 2.42188 12.7307 2.42188 11H1.92188ZM11 1.92188C5.99407 1.92188 1.92188 5.99407 1.92188 11H2.42188C2.42188 6.27021 6.27021 2.42188 11 2.42188V1.92188ZM4.60122 17.0453C8.00857 13.2234 13.9923 13.2243 17.3986 17.0453L17.7718 16.7125C14.1667 12.6685 7.83421 12.6676 4.228 16.7125L4.60122 17.0453ZM17.3988 16.7123C13.9797 20.5376 8.02164 20.5388 4.601 16.7123L4.22823 17.0455C7.84768 21.0944 14.1537 21.0932 17.7716 17.0455L17.3988 16.7123Z" fill="white"/>
<path fill-rule="evenodd" clip-rule="evenodd" d="M14.5156 8.07031C14.5156 10.0088 12.9385 11.5859 11 11.5859C9.06152 11.5859 7.48438 10.0088 7.48438 8.07031V6.89844C7.48438 4.95996 9.06152 3.38281 11 3.38281C12.9385 3.38281 14.5156 4.95996 14.5156 6.89844V8.07031ZM11 4.55469C9.70758 4.55469 8.65625 5.60602 8.65625 6.89844V8.07031C8.65625 9.36273 9.70758 10.4141 11 10.4141C12.2924 10.4141 13.3438 9.36273 13.3438 8.07031V6.89844C13.3438 5.60602 12.2924 4.55469 11 4.55469Z" fill="white"/>
</svg>
