<svg width="18" height="19" viewBox="0 0 18 19" fill="none" xmlns="http://www.w3.org/2000/svg">
<path fill-rule="evenodd" clip-rule="evenodd" d="M7.85069 15.6471C3.51488 15.6471 0 12.1443 0 7.82353C0 3.50271 3.51488 0 7.85069 0C12.1865 0 15.7014 3.50271 15.7014 7.82353C15.7014 9.86617 14.9159 11.726 13.6294 13.1193L17.616 17.0921C18.0539 17.5285 18.0539 18.2362 17.616 18.6726C17.178 19.1091 16.4679 19.1091 16.0299 18.6726L11.8814 14.5386C10.7032 15.2424 9.32437 15.6471 7.85069 15.6471ZM7.85069 13.4118C10.9477 13.4118 13.4583 10.9098 13.4583 7.82353C13.4583 4.73723 10.9477 2.23529 7.85069 2.23529C4.75368 2.23529 2.24306 4.73723 2.24306 7.82353C2.24306 10.9098 4.75368 13.4118 7.85069 13.4118Z" fill="#FBFBFF"/>
</svg>
