<svg width="20" height="21" viewBox="0 0 20 21" fill="none" xmlns="http://www.w3.org/2000/svg">
<path fill-rule="evenodd" clip-rule="evenodd" d="M6.01599 8.95905H7.22699L7.22599 5.39805L8.63499 0.998047H7.40499L6.65599 4.00405H6.57999L5.79399 0.998047H4.57399L6.01599 5.53805V8.95905ZM9.14699 8.68005C9.45098 8.96762 9.85901 9.11892 10.277 9.09905L10.279 9.10005C10.7028 9.12311 11.1183 8.97586 11.433 8.69105C11.7216 8.39349 11.8727 7.98892 11.85 7.57505V4.71005C11.8629 4.31925 11.7083 3.94154 11.425 3.67205C11.1255 3.39876 10.7301 3.25497 10.325 3.27205C9.90221 3.24993 9.48629 3.38572 9.15799 3.65305C8.86642 3.91282 8.70707 4.2899 8.72399 4.68005V7.55505C8.70349 7.97239 8.8566 8.3796 9.14699 8.68005ZM14.685 8.34505C14.5111 8.55276 14.3019 8.72812 14.067 8.86305C13.8772 8.97354 13.6626 9.03442 13.443 9.04005C13.2258 9.05385 13.0157 8.96001 12.881 8.78905C12.7394 8.56903 12.6731 8.309 12.692 8.04805V3.41305H13.766V7.66505C13.7583 7.76477 13.7829 7.86432 13.836 7.94905C13.8899 8.01295 13.9718 8.04623 14.055 8.03805C14.1638 8.02711 14.2675 7.98665 14.355 7.92105C14.4801 7.83868 14.5918 7.73749 14.686 7.62105V3.41105H15.762V8.95705H14.686L14.685 8.34505ZM16.435 20.454H4.44999C2.49424 20.4023 0.95019 18.7759 0.999993 16.82V13.32C0.937973 11.3471 2.46475 9.68654 4.43599 9.58305H16.448C18.4239 9.69961 19.9476 11.3687 19.884 13.347V16.82C19.9338 18.7755 18.3904 20.4017 16.435 20.454ZM6.96799 11.547H3.66799V12.539H4.78199V18.37H5.85799V12.539H6.97199L6.96799 11.547ZM8.86599 13.585H9.82099L9.81499 18.617H8.85999V18.065C8.70535 18.2515 8.51877 18.4089 8.30899 18.53C8.14149 18.6319 7.94998 18.6874 7.75399 18.691C7.56019 18.7043 7.37257 18.6199 7.25399 18.466C7.12849 18.2646 7.0697 18.0288 7.08599 17.792V13.583H8.04099V17.445C8.0341 17.535 8.05468 17.625 8.09999 17.703C8.14928 17.7612 8.22419 17.7912 8.29999 17.783C8.39661 17.7731 8.48862 17.7368 8.56599 17.678C8.6791 17.6034 8.78025 17.512 8.86599 17.407V13.585ZM13.821 14.648C13.8434 14.3169 13.7597 13.9873 13.582 13.707C13.4418 13.5184 13.2465 13.5209 12.994 13.5242H12.9939H12.9939H12.9939H12.9939H12.9939H12.9939C12.9599 13.5246 12.925 13.525 12.889 13.525C12.6476 13.5253 12.408 13.5659 12.18 13.645C12.0237 13.7361 11.8849 13.8543 11.77 13.994V11.658H10.808V18.62H11.773V18.235C11.8827 18.3769 12.0219 18.4932 12.181 18.576C12.4299 18.6514 12.6889 18.6881 12.949 18.685C13.218 18.6491 13.4565 18.4937 13.598 18.262C13.7624 18.0215 13.8413 17.7328 13.822 17.442L13.821 14.648ZM16.312 16.859H17.295L17.294 17.118C17.3256 17.5385 17.197 17.9555 16.934 18.285C16.6489 18.5623 16.2585 18.7036 15.862 18.673C15.4799 18.6928 15.109 18.5405 14.851 18.258C14.5901 17.937 14.4585 17.5301 14.482 17.117V14.855C14.4669 14.4587 14.6134 14.0732 14.888 13.787C15.164 13.51 15.5432 13.3609 15.934 13.376C16.3095 13.3516 16.6773 13.4905 16.943 13.757C17.1964 14.0654 17.3223 14.4589 17.295 14.857V16.14H15.468V17.088C15.4528 17.2766 15.4848 17.4659 15.561 17.639C15.6327 17.7457 15.7571 17.8044 15.885 17.792C16.0103 17.8057 16.1343 17.7571 16.217 17.662C16.2984 17.4823 16.3311 17.2844 16.312 17.088V16.859ZM15.468 14.848C15.4542 14.691 15.4891 14.5335 15.568 14.397C15.6461 14.2978 15.7693 14.245 15.895 14.257C16.0177 14.2462 16.1373 14.2991 16.212 14.397C16.2907 14.5336 16.3256 14.691 16.312 14.848V15.357H15.468V14.848ZM11.998 17.842C12.0697 17.877 12.1483 17.8955 12.228 17.896H12.23C12.411 17.9013 12.5907 17.8643 12.755 17.788C12.8183 17.6839 12.847 17.5625 12.837 17.441V14.841C12.8468 14.7046 12.8117 14.5687 12.737 14.454C12.5622 14.3639 12.3676 14.3192 12.171 14.324C12.1014 14.3248 12.033 14.3416 11.971 14.373C11.8956 14.412 11.8279 14.4641 11.771 14.527V17.663C11.8356 17.7355 11.9125 17.7961 11.998 17.842ZM10.75 4.63905C10.7532 4.52625 10.705 4.41811 10.619 4.34505C10.5212 4.26763 10.3986 4.22821 10.274 4.23405C10.1571 4.2291 10.0427 4.26878 9.95399 4.34505C9.87271 4.42078 9.82822 4.52801 9.83199 4.63905V7.66005C9.82386 7.78777 9.86502 7.91376 9.94699 8.01205C10.0324 8.10043 10.1524 8.14655 10.275 8.13805C10.4044 8.14816 10.5318 8.10098 10.6234 8.00898C10.715 7.91699 10.7616 7.78944 10.751 7.66005L10.75 4.63905Z" fill="black"/>
</svg>
